# xmcd
#
# Track frame offsets: 
#        150
#        13027
#        26962
#        39946
#        51665
#        64605
#        74911
#        86295
#        104820
#        118061
#        131990
#        145539
#        157175
#        169651
#        179896
#
# Disc length: 2558 seconds
#
# Revision: 0
# Processed by: cddbd v1.5.2PL0 Copyright (c) Steve Scherf et al.
# Submitted via: ExactAudioCopy v0.99pb4
#
DISCID=e909fc0f
DTITLE=Ray Charles - The Legend lives on - CD 1
DYEAR=2008
DGENRE=Blues
TTITLE0=I got a Woman
TTITLE1=Come back ( Baby )
TTITLE2=Ain't that Love ?
TTITLE3=What would I do without you ?
TTITLE4=Heartbreaker
TTITLE5=Sitting on Top of the World
TTITLE6=This little Girl of mine
TTITLE7=Sweet Sixteen Bars ( instr.)
TTITLE8=Don't you know ?
TTITLE9=Kissa me Baby
TTITLE10=The Midnight Hour
TTITLE11=Lonely Avenue
TTITLE12=Jumpin' in the Morning
TTITLE13=It's Alright
TTITLE14=Hit the Road Jack ( Live with Gladys Knight )
EXTD=
EXTT0=
EXTT1=
EXTT2=
EXTT3=
EXTT4=
EXTT5=
EXTT6=
EXTT7=
EXTT8=
EXTT9=
EXTT10=
EXTT11=
EXTT12=
EXTT13=
EXTT14=
PLAYORDER=
